<svg xmlns="http://www.w3.org/2000/svg" viewBox="0 0 512 512" width="512" height="512">
  <defs>
    <linearGradient id="bg" x1="0" y1="0" x2="1" y2="1">
      <stop offset="0%" stop-color="#1A0E07"/>
      <stop offset="100%" stop-color="#0C0907"/>
    </linearGradient>
    <linearGradient id="cup" x1="0" y1="0" x2="0" y2="1">
      <stop offset="0%" stop-color="#D4913F"/>
      <stop offset="100%" stop-color="#9B5B2D"/>
    </linearGradient>
    <linearGradient id="steam" x1="0" y1="1" x2="0" y2="0">
      <stop offset="0%" stop-color="#F0E6D6" stop-opacity=".7"/>
      <stop offset="100%" stop-color="#F0E6D6" stop-opacity="0"/>
    </linearGradient>
  </defs>
  <rect width="512" height="512" rx="96" fill="url(#bg)"/>
  <!-- V60 cone -->
  <path d="M150 140 L256 380 L362 140" fill="none" stroke="url(#cup)" stroke-width="14" stroke-linecap="round" stroke-linejoin="round"/>
  <!-- Dripper ridges -->
  <line x1="178" y1="180" x2="226" y2="320" stroke="#D4913F" stroke-width="4" opacity=".35"/>
  <line x1="210" y1="160" x2="240" y2="340" stroke="#D4913F" stroke-width="4" opacity=".3"/>
  <line x1="256" y1="148" x2="256" y2="372" stroke="#D4913F" stroke-width="4" opacity=".35"/>
  <line x1="302" y1="160" x2="272" y2="340" stroke="#D4913F" stroke-width="4" opacity=".3"/>
  <line x1="334" y1="180" x2="286" y2="320" stroke="#D4913F" stroke-width="4" opacity=".35"/>
  <!-- Steam lines -->
  <path d="M216 126 Q216 100 228 80 Q240 60 228 40" fill="none" stroke="url(#steam)" stroke-width="6" stroke-linecap="round"/>
  <path d="M256 118 Q256 88 268 68 Q280 48 268 24" fill="none" stroke="url(#steam)" stroke-width="7" stroke-linecap="round"/>
  <path d="M296 126 Q296 100 308 80 Q320 60 308 40" fill="none" stroke="url(#steam)" stroke-width="6" stroke-linecap="round"/>
  <!-- Server/carafe below -->
  <path d="M188 384 L188 410 Q188 430 208 430 L304 430 Q324 430 324 410 L324 384" fill="#5D3019" opacity=".8"/>
  <rect x="180" y="380" width="152" height="10" rx="5" fill="#9B5B2D" opacity=".9"/>
  <!-- Text -->
  <text x="256" y="476" text-anchor="middle" font-family="sans-serif" font-weight="900" font-size="40" fill="#D4913F" letter-spacing="4">V60 MASTERS</text>
</svg>
